<svg width="11.112mm" height="11.112mm" version="1.1" viewBox="0 0 11.112 11.112" xmlns="http://www.w3.org/2000/svg">
	<g transform="translate(-.11911 -.11911)">
		<path d="m5.7964 0.17209c-2.1816 0-3.9669 1.8383-3.9428 4.0805 0.011657 1.0837 0.54281 2.0417 1.1008 2.8433 0.55802 0.80153 1.1677 1.4877 1.3753 1.8609 0.26141 0.46999 0.36595 0.91576 0.49393 1.3122 0.063982 0.19824 0.12867 0.3906 0.27737 0.57759 0.14872 0.18699 0.42775 0.33338 0.69537 0.33338 0.28852 0 0.54921-0.1748 0.69345-0.36007 0.14424-0.1853 0.22616-0.38543 0.30505-0.59595 0.15779-0.42104 0.28931-0.89766 0.49522-1.2987 0.26924-0.52436 0.86073-1.1927 1.4023-1.9584 0.54157-0.76566 1.0471-1.6619 1.0471-2.7194 0-2.2364-1.7615-4.0754-3.9431-4.0754zm1.524e-4 2.6489c0.74152-6.6e-6 1.3507 0.62014 1.3507 1.4264 2.59e-5 0.80629-0.60916 1.4268-1.3507 1.4268-0.74152 1.33e-5 -1.3519-0.62055-1.3519-1.4268 0-0.80627 0.61041-1.4264 1.3519-1.4264z" style="color-rendering:auto;color:#000000;dominant-baseline:auto;fill:#453913;font-feature-settings:normal;font-variant-alternates:normal;font-variant-caps:normal;font-variant-east-asian:normal;font-variant-ligatures:normal;font-variant-numeric:normal;font-variant-position:normal;font-variation-settings:normal;image-rendering:auto;inline-size:0;isolation:auto;mix-blend-mode:normal;shape-margin:0;shape-padding:0;shape-rendering:auto;solid-color:#000000;stop-color:#000000;text-decoration-color:#000000;text-decoration-line:none;text-decoration-style:solid;text-indent:0;text-orientation:mixed;text-transform:none;white-space:normal"/>
	</g>
</svg>
