<svg width="11.112mm" height="11.112mm" version="1.1" viewBox="0 0 11.112 11.112" xmlns="http://www.w3.org/2000/svg">
	<g transform="translate(-.11911 -.11911)">
		<path d="m2.077 2.7151 3.6074 2.2911 3.6688-2.3305c0.31567-0.18818 0.17324-0.30289-0.05424-0.32442h-6.8988c-0.50722-0.013265-0.69461 0.057459-0.32316 0.36376zm8.3926 0.89405-4.4133 2.8038c-0.22699 0.14438-0.51711 0.14438-0.74405 0l-4.5389-2.8827c-0.32727-0.16163-0.54751 0.02378-0.56237 0.19462v4.2053c0 0.76094 0.61257 1.3735 1.3735 1.3735h8.199c0.7609 0 1.3735-0.61256 1.3735-1.3735v-4.0525c-0.018669-0.41881-0.33984-0.48944-0.68735-0.26857z" style="fill:#453913;stop-color:#000000"/>
	</g>
</svg>
