<svg width="11.112mm" height="11.112mm" version="1.1" viewBox="0 0 11.112 11.112" xmlns="http://www.w3.org/2000/svg">
	<g transform="translate(-.11911 -.11911)">
		<path d="m3.2215 10.972c0.31443-0.041065 0.62885-0.13408 1.3489-0.39884 1.2295-0.45205 1.8397-0.80199 2.7929-1.6017 0.31222-0.26192 1.1576-1.0931 1.4486-1.4243 0.68155-0.7756 1.1613-1.4893 1.4552-2.165 0.18629-0.42821 0.55627-1.4574 0.64064-1.782 0.2263-0.87051 0.074169-1.6682-0.47743-2.5023-0.20851-0.31542-0.40376-0.50961-0.60891-0.60561-0.24789-0.116-0.65642-0.21322-0.96207-0.22895l-0.2679-0.013751-0.096252 0.10654c-0.052951 0.058551-0.1384 0.18333-0.18991 0.27718-0.58173 1.06-0.82013 1.48-0.92006 1.6209-0.26366 0.37189-0.32282 0.5594-0.23196 0.73511 0.06865 0.13277 0.31595 0.37878 0.65216 0.64879 0.35282 0.28335 0.65139 0.58751 0.67705 0.68977 0.028747 0.11458-0.070578 0.35324-0.32762 0.78708-0.66608 1.1242-1.2451 1.7861-2.1458 2.4531-0.31645 0.23432-1.1478 0.74341-1.3683 0.83796-0.3187 0.13661-0.45066 0.047345-1.0651-0.72014-0.34729-0.43384-0.53966-0.58798-0.73384-0.58798-0.13741 0-0.2545 0.055134-0.56983 0.26808-0.12494 0.084399-0.52784 0.31876-0.89532 0.52082-0.89919 0.49439-0.94183 0.52017-1.0352 0.62597-0.080248 0.090891-0.080982 0.094489-0.065745 0.32071 0.017422 0.25881 0.14196 0.77949 0.2323 0.97126 0.13253 0.28131 0.5173 0.59592 1.0507 0.85906 0.56977 0.28109 1.1079 0.38086 1.6629 0.30829z" style="fill:#453913;stroke-width:.62222"/>
	</g>
</svg>
