<svg width="24" fill="#cfcfc2" version="1.1" viewBox="-5 -7 24 24" xmlns="http://www.w3.org/2000/svg">
	<path transform="translate(-5,-7)" d="m12 1.9844c-5.523 0-10 4.478-10 10 0 5.523 4.477 10 10 10s10-4.477 10-10c0-5.522-4.477-10-10-10zm4.9132 6.7709c0.83077 0.094746 1.1855 1.1065 0.5957 1.6992l-5.7355 5.7539c-0.18732 0.18783-0.44176 0.29326-0.70703 0.29297-0.26527 2.91e-4 -0.51971-0.10514-0.70703-0.29297l-3.3958-3.4166c-0.97178-0.94127 0.46816-2.3852 1.4121-1.416l2.6887 2.7096 5.0285-5.0449c0.21576-0.215 0.51772-0.31997 0.82031-0.28516z" style="fill:#cfcfc2"/>
</svg>
